inDegrees=no
num_controls=7
num_derivatives=13
num_iterations=124
num_multipliers=7
num_parameters=0
num_slacks=7
num_states=26
objective=5.539495
objective_accelerations=0.423227
objective_balance=0.036862
objective_effort=0.438079
objective_height=4.592799
objective_ligament=0.048527
solver_duration=1406.814519
status=Solve_Succeeded
success=true
DataType=double
version=3
OpenSimVersion=4.4-2022-07-23-0e9fedc
endheader
time	/jointset/ground_pelvis/pelvis_tilt/value	/jointset/ground_pelvis/pelvis_tx/value	/jointset/ground_pelvis/pelvis_ty/value	/jointset/hip_l/hip_flexion_l/value	/jointset/hip_l/hip_adduction_l/value	/jointset/hip_l/hip_rotation_l/value	/jointset/back/lumbar_extension/value	/jointset/patellofemoral_l/patellar_flexion_l/value	/jointset/knee_l/knee_flexion_l/value	/jointset/knee_l/knee_adduction_l/value	/jointset/knee_l/knee_rotation_l/value	/jointset/ankle_l/ankle_angle_l/value	/jointset/subtalar_l/subtalar_angle_l/value	/jointset/ground_pelvis/pelvis_tilt/speed	/jointset/ground_pelvis/pelvis_tx/speed	/jointset/ground_pelvis/pelvis_ty/speed	/jointset/hip_l/hip_flexion_l/speed	/jointset/hip_l/hip_adduction_l/speed	/jointset/hip_l/hip_rotation_l/speed	/jointset/back/lumbar_extension/speed	/jointset/patellofemoral_l/patellar_flexion_l/speed	/jointset/knee_l/knee_flexion_l/speed	/jointset/knee_l/knee_adduction_l/speed	/jointset/knee_l/knee_rotation_l/speed	/jointset/ankle_l/ankle_angle_l/speed	/jointset/subtalar_l/subtalar_angle_l/speed	/forceset/tau_hip_flexion_l	/forceset/tau_hip_adduction_l	/forceset/tau_hip_rotation_l	/forceset/tau_knee_flexion_l	/forceset/tau_ankle_angle_l	/forceset/tau_subtalar_angle_l	/forceset/tau_lumbar_extension	lambda_cid13_p0	lambda_cid13_p1	lambda_cid13_p2	lambda_cid13_p3	lambda_cid13_p4	lambda_cid13_p5	lambda_cid14_p0	/jointset/ground_pelvis/pelvis_tilt/accel	/jointset/ground_pelvis/pelvis_tx/accel	/jointset/ground_pelvis/pelvis_ty/accel	/jointset/hip_l/hip_flexion_l/accel	/jointset/hip_l/hip_adduction_l/accel	/jointset/hip_l/hip_rotation_l/accel	/jointset/back/lumbar_extension/accel	/jointset/patellofemoral_l/patellar_flexion_l/accel	/jointset/knee_l/knee_flexion_l/accel	/jointset/knee_l/knee_adduction_l/accel	/jointset/knee_l/knee_rotation_l/accel	/jointset/ankle_l/ankle_angle_l/accel	/jointset/subtalar_l/subtalar_angle_l/accel	gamma_cid13_p0	gamma_cid13_p1	gamma_cid13_p2	gamma_cid13_p3	gamma_cid13_p4	gamma_cid13_p5	gamma_cid14_p0
1	-0.0879049050074218	-0.05681548234142403	0.732759001494851	1.16439467830807	-0.3340571604211019	0.02842345052147644	-0.9599124809866342	1.226431835784938	1.22643183578427	-0.09380668517113537	-0.1745239966831517	0.2344205431916725	0.03898944536790699	0.1083531153450148	0.02735637123419732	0.06365642803704014	-0.2909314903803384	-0.002577840446808056	-0.06357153199946229	-0.003524450305557822	-0.1573377876998358	-0.1573377876998383	0.0004504180128520443	-5.553582553722745e-05	0.01664013972838875	0.004504418817451527	-0.3521154037342603	0.03202818722748892	-0.002888953951749649	-0.328751531914043	0.04641795382152906	0.03110598615521168	0.4126026766840757	-35.03738573662798	-7.251069386499843	0.5606812174209626	10.37570401220941	-783.8236207622039	-65.45486852751635	-0.6941971748136498	0.774966227720893	0.07460169385372946	1.230758329730703	-4.275830328991704	-0.04287454992060623	-1.497504894501219	0.3167995503180647	-4.339157385552189	-4.339157385552203	-0.2184088777691102	-0.009329318408796243	-1.144065757411227	-0.4891680144543648	-1.018708430246706e-08	1.065280831904085e-10	4.127049749890016e-08	7.543127355920329e-09	-2.432782482002484e-08	6.080221264713127e-08	-1.085025796329807e-08
1.01	-0.08678302928160278	-0.05653810301787279	0.7334569474384854	1.161272280679518	-0.3340844586971924	0.02771248993570513	-0.9599309717424374	1.224641780984668	1.22464178098443	-0.09381178102059579	-0.1745243025026004	0.2345299250221557	0.03901089753727636	0.1160227058595406	0.02812930481414839	0.07592815815970619	-0.3335534502992169	-0.002875149975422621	-0.07861747199138179	-0.0001328001225921258	-0.2006813260153029	-0.2006813260153058	-0.001472495209420377	-5.268215316045752e-06	0.005232882916573567	-0.0002069721145535758	-0.3516735690741646	0.03224012114690251	-0.002933518551763695	-0.3284762058378252	0.04623484788768845	0.03120525181311624	0.4126203793120047	-35.08254341946891	-7.298078403984804	0.5816596436088205	10.22098973372206	-783.8030416335806	-65.51305477746224	-0.7180696319277153	0.7630556257528528	0.08011369939710884	1.224683735531157	-4.256193140443293	-0.02216250352642947	-1.507684630481777	0.3564829157425861	-4.333172139513328	-4.333172139513171	-0.1796762604149511	0.01227235926609019	-1.139558490695428	-0.4610780547153417	-1.648954224388721e-08	-8.807996599402919e-09	5.891812236179897e-08	1.397804467526335e-08	-3.112364695296782e-08	6.553253740194278e-08	-1.478106422143661e-08
1.02	-0.08558443761817708	-0.05625269945665575	0.7342774713597459	1.157723500588369	-0.3341145307384098	0.02685116073425726	-0.9599143189669661	1.222418046784249	1.222418046784441	-0.09383619474548191	-0.174524092134286	0.2345251337149943	0.03898544511289755	0.123696302871516	0.0289612187673579	0.08817202356215045	-0.3762079829023917	-0.003132593471835228	-0.09364525514107554	0.003504256598666533	-0.2440736677295461	-0.244073667729549	-0.003413157070032384	4.770173604413911e-05	-0.006194487800393628	-0.004876499932228333	-0.3512317344139432	0.03245205506638573	-0.002978083152124522	-0.3282008797616005	0.04605174195384659	0.03130451747111415	0.4126380819400367	-35.13959977168782	-7.342303420724217	0.6013938005425433	10.11439744515991	-783.9390708932608	-65.55878740814499	-0.7483028531696512	0.7757675272107701	0.08639776850541926	1.225185385686338	-4.282344865850942	-0.03490134348023852	-1.493873526056118	0.3658808579783934	-4.348918065307387	-4.348918065307338	-0.2219586054370209	-0.008788850181070864	-1.148088538441631	-0.4807953915883338	-2.095516599168455e-08	-1.935580613167128e-08	7.50916141939336e-08	1.619410786513358e-08	-3.510873358580092e-08	6.837109783726382e-08	-1.87843705281753e-08
1.03	-0.08430961494348328	-0.05595850136401088	0.7352201823442973	1.15374858777814	-0.3341469727868739	0.02583974025947098	-0.9598584557263664	1.219760430610036	1.219760430610414	-0.09388010303817813	-0.1745233592237567	0.2344062287493537	0.03891362475051233	0.1312163489542361	0.02990650187125412	0.1003544381891909	-0.4187230675691375	-0.003349342836953275	-0.1086307874272536	0.00787106714113377	-0.2874295204941539	-0.2874295204941534	-0.005368481686820669	9.426894471565884e-05	-0.01756370811191207	-0.009469601254367481	-0.351619072278205	0.03275513751534568	-0.003037460263382906	-0.3274611592980339	0.04587109141499041	0.03150742933006455	0.4137202226803266	-35.19712262256726	-7.443724196175324	0.6442549764154785	9.653602063780449	-784.4097282288349	-65.6258936855823	-0.7852623542993316	0.7323389744454866	0.1028125844897625	1.212401390356225	-4.228366291839429	-0.01409662264976738	-1.499705412558497	0.5024824923061181	-4.32590730717084	-4.325907307170247	-0.1823286464802166	0.01070788695961795	-1.127921758231606	-0.4458775263396758	-2.540204653342452e-08	-2.99202818358751e-08	9.125006385228491e-08	1.836712152307039e-08	-3.906513924414309e-08	7.119035455503903e-08	-2.278841663132828e-08
1.04	-0.08296114864285714	-0.05565400663969559	0.7362842438529479	1.149350068916256	-0.3341813893069244	0.02467870199533449	-0.959752844112281	1.21666985822315	1.21666985822374	-0.09394356642837255	-0.1745222949650365	0.2341743149844527	0.03879641137014331	0.1384250280627239	0.03102054510144382	0.1124421283818828	-0.4609291932260215	-0.003527487786979637	-0.1235688130198207	0.01345393128061498	-0.3306649102640939	-0.3306649102640908	-0.007324176570821546	0.0001139713761210627	-0.0287962476524148	-0.01395510352902263	-0.3520064101425459	0.03305821996437695	-0.003096837374906773	-0.3267214388344737	0.04569044087616678	0.03171034118912274	0.4148023634205357	-35.26665927441288	-7.54242779374417	0.6859818937980227	9.239250269975736	-785.0396186047186	-65.68138174574817	-0.8293590867793691	0.7134941323642502	0.1201497937641572	1.206240498816617	-4.220553063878561	-0.02718046046196253	-1.484372187334025	0.6090915773805224	-4.324825466373789	-4.324825466373931	-0.2220326588795483	-0.01416180563443948	-1.120752384238435	-0.4592755820915933	-2.857670789035232e-08	-4.038608353805698e-08	1.049433936148683e-07	1.895505397408816e-08	-4.342412822663519e-08	6.938731596346063e-08	-2.583422017931229e-08
1.05	-0.08154197020984966	-0.05533756165149142	0.7374686641375445	1.144530985727839	-0.3342173863359723	0.02336863922158579	-0.9595858583537739	1.213147601936613	1.213147601936973	-0.09402668581271746	-0.1745211631718398	0.2338306915762046	0.03863486879506511	0.1453749903125925	0.03229316257180546	0.1244214375881409	-0.5028381459925532	-0.00366237554089309	-0.1384286786255151	0.02009512620765801	-0.3737591215023459	-0.3737591215023421	-0.009301626458959964	0.0001102638938629384	-0.03991184429328627	-0.01833350565962617	-0.3517551829821876	0.03332333536851398	-0.003168678866049749	-0.3258526131077547	0.04569099653376232	0.03193693084716285	0.4152364553732173	-35.23941075350551	-7.672456863554733	0.737381493517378	8.811902163875244	-785.0376891632667	-65.77523934537686	-0.8810791935915565	0.6803948923827385	0.1345281328548847	1.19069288584696	-4.168674988565765	-0.005220222785711255	-1.484560256303838	0.7144193168344058	-4.297629320875862	-4.297629320875541	-0.1859059966839621	0.006231603327178416	-1.104478271923146	-0.4241422178649089	-3.171161239775476e-08	-5.084880167767567e-08	1.185596883807089e-07	1.949345263738973e-08	-4.779569793800697e-08	6.743983064346496e-08	-2.885007864744728e-08
1.06	-0.08005436263014973	-0.05500764840674719	0.7387722608650675	1.139294291290644	-0.3342544477005507	0.02191042448999042	-0.9593479034726727	1.209195221464028	1.209195221464166	-0.09412964066451324	-0.1745201270888602	0.2333764092079651	0.03843013826081699	0.1521108574059107	0.03371419640945793	0.1362774169670237	-0.5444514429800983	-0.003740354892008748	-0.1531992045958739	0.02764775579344284	-0.4166897474735939	-0.4166897474735887	-0.01129127006321395	9.482932555339571e-05	-0.0509280396506217	-0.02259269536303384	-0.3515039558217945	0.0335884507727128	-0.003240520357302059	-0.3249837873810325	0.04569155219136922	0.03216352050528738	0.4156705473259197	-35.22413409147543	-7.799913080203558	0.7878263097265944	8.428490622998446	-785.1954655046165	-65.8591420830801	-0.940936147954452	0.670675101054066	0.1498330672223935	1.181574533341572	-4.161421908081224	-0.0157987799024343	-1.466504260266954	0.7913785091284899	-4.292108412972996	-4.292108412972965	-0.2244714021026654	-0.0165072228447932	-1.100872127531131	-0.435433096652423	-3.474426535851563e-08	-6.16095599771022e-08	1.278498560517919e-07	2.008077477463109e-08	-5.143565371891813e-08	6.440838579636624e-08	-3.134553339302099e-08
